<?xml version="1.0" standalone="no"?>
<!DOCTYPE svg PUBLIC "-//W3C//DTD SVG 20010904//EN"
 "http://www.w3.org/TR/2001/REC-SVG-20010904/DTD/svg10.dtd">
<svg version="1.0" xmlns="http://www.w3.org/2000/svg"
 width="30.000000pt" height="30.000000pt" viewBox="0 0 30.000000 30.000000"
 preserveAspectRatio="xMidYMid meet">

<g transform="translate(0.000000,30.000000) scale(0.100000,-0.100000)"
fill="#000000" stroke="none">
<path d="M0 150 l0 -150 150 0 150 0 0 150 0 150 -150 0 -150 0 0 -150z m194
110 c34 -13 35 -47 2 -56 -29 -7 -46 1 -46 22 0 17 12 18 27 3 7 -7 13 -7 17
0 10 15 -30 32 -58 25 -66 -16 -54 -55 22 -74 73 -18 96 -51 76 -105 -17 -44
-128 -61 -164 -25 -24 24 -25 38 -3 62 33 36 114 10 83 -27 -17 -20 -32 -19
-28 3 2 12 -4 17 -22 17 -20 0 -25 -5 -25 -25 0 -21 7 -27 38 -35 30 -7 45 -6
64 5 62 36 55 77 -18 98 -78 23 -103 47 -83 80 23 36 72 50 118 32z"/>
</g>
</svg>
