<?xml version="1.0" standalone="no"?>
<!DOCTYPE svg PUBLIC "-//W3C//DTD SVG 20010904//EN"
 "http://www.w3.org/TR/2001/REC-SVG-20010904/DTD/svg10.dtd">
<svg version="1.0" xmlns="http://www.w3.org/2000/svg"
 width="95.000000pt" height="30.000000pt" viewBox="0 0 95.000000 30.000000"
 preserveAspectRatio="xMidYMid meet">

<g transform="translate(0.000000,30.000000) scale(0.100000,-0.100000)"
fill="#000000" stroke="none">
<path d="M0 150 l0 -150 150 0 150 0 0 150 0 150 -150 0 -150 0 0 -150z m194
110 c34 -13 35 -47 2 -56 -29 -7 -46 1 -46 22 0 17 12 18 27 3 7 -7 13 -7 17
0 10 15 -30 32 -58 25 -66 -16 -54 -55 22 -74 73 -18 96 -51 76 -105 -17 -44
-128 -61 -164 -25 -24 24 -25 38 -3 62 33 36 114 10 83 -27 -17 -20 -32 -19
-28 3 2 12 -4 17 -22 17 -20 0 -25 -5 -25 -25 0 -21 7 -27 38 -35 30 -7 45 -6
64 5 62 36 55 77 -18 98 -78 23 -103 47 -83 80 23 36 72 50 118 32z"/>
<path d="M723 224 c-8 -21 13 -42 28 -27 13 13 5 43 -11 43 -6 0 -13 -7 -17
-16z"/>
<path d="M370 210 c-21 -21 -23 -41 -5 -82 5 -13 3 -18 -9 -18 -20 0 -21 -39
-1 -46 8 -4 27 2 41 11 24 15 26 21 20 61 -3 28 -2 44 5 44 17 0 5 45 -13 48
-9 2 -26 -6 -38 -18z"/>
<path d="M450 150 c0 -73 2 -80 20 -80 16 0 20 7 20 36 0 21 4 33 10 29 6 -3
10 -19 10 -36 0 -22 5 -29 20 -29 17 0 20 7 20 39 0 55 -8 71 -36 71 -19 0
-24 5 -24 25 0 18 -5 25 -20 25 -18 0 -20 -7 -20 -80z"/>
<path d="M587 162 c-32 -35 -11 -92 34 -92 24 0 26 35 2 44 -12 5 -13 10 -6
17 17 17 33 1 33 -32 0 -22 5 -29 20 -29 17 0 20 7 20 39 0 23 -7 46 -16 55
-21 22 -67 20 -87 -2z"/>
<path d="M720 125 c0 -48 2 -55 20 -55 18 0 20 7 20 55 0 48 -2 55 -20 55 -18
0 -20 -7 -20 -55z"/>
<path d="M805 166 c-16 -11 -20 -27 -20 -78 0 -58 2 -63 23 -66 21 -3 22 0 22
57 0 48 3 61 15 61 8 0 15 -7 15 -15 0 -8 -4 -15 -10 -15 -5 0 -10 -9 -10 -21
0 -29 40 -21 59 12 13 24 13 29 -2 53 -20 30 -61 35 -92 12z"/>
</g>
</svg>
